<svg xmlns="http://www.w3.org/2000/svg"  viewBox="0 0 1543.703 1045.527"><defs>
  <style>*{fill:red;}.a{opacity:0.487;}.b{fill:none;stroke:#231f20;opacity:0.7;}</style></defs>
  <g class="a" transform="translate(242.644 257.919)">
    <g transform="translate(-239.436 -259)">
      <path class="b" width="100" d="M566.343,3.128,230.854,1.275a62.058,62.058,0,0,0-54.481,31.969L10.236,329.434a65.8,65.8,0,0,0,.349,64.541L179.931,692.018a63.7,63.7,0,0,0,54.83,32.573l335.489,1.853a62.046,62.046,0,0,0,54.478-31.969L790.87,398.285a65.837,65.837,0,0,0-.349-64.541L621.169,35.7A63.684,63.684,0,0,0,566.343,3.128Z" transform="translate(-200 0) rotate(13)"/>
      <path class="b" width="400" d="M567.133-4.393l-335.957,2.6A64.15,64.15,0,0,0,176.2,30.861L5.971,328.872a65.555,65.555,0,0,0-.49,64.453L171.2,688.735a61.847,61.847,0,0,0,54.487,31.8l335.957-2.6a64.138,64.138,0,0,0,54.973-32.651L786.856,387.273a65.593,65.593,0,0,0,.49-64.453L621.617,27.41A61.836,61.836,0,0,0,567.133-4.393Z" transform="translate(900 363.794) rotate(-19)"/>
      <path class="b" d="M566.343,3.128,230.854,1.275a62.058,62.058,0,0,0-54.481,31.969L10.236,329.434a65.8,65.8,0,0,0,.349,64.541L179.931,692.018a63.7,63.7,0,0,0,54.83,32.573l335.489,1.853a62.046,62.046,0,0,0,54.478-31.969L790.87,398.285a65.837,65.837,0,0,0-.349-64.541L621.169,35.7A63.684,63.684,0,0,0,566.343,3.128Z" transform="translate(188 700) rotate(40)"/>
      <path class="b" d="M566.343,3.128,230.854,1.275a62.058,62.058,0,0,0-54.481,31.969L10.236,329.434a65.8,65.8,0,0,0,.349,64.541L179.931,692.018a63.7,63.7,0,0,0,54.83,32.573l335.489,1.853a62.046,62.046,0,0,0,54.478-31.969L790.87,398.285a65.837,65.837,0,0,0-.349-64.541L621.169,35.7A63.684,63.684,0,0,0,566.343,3.128Z" transform="translate(900 1200) rotate(20)"/>
    </g>
  </g>
</svg>